<svg width="85" height="85" viewBox="0 0 85 85" fill="none" xmlns="http://www.w3.org/2000/svg">
<path d="M42.5366 46.5C27.2052 46.5 14.7317 34.1633 14.7317 19H11.9512C11.9512 32.9454 21.5438 44.7101 34.5427 48.1953C29.4908 50.4397 25.5407 54.7621 23.8973 60.25H21.1507L16.98 52H10.561V54.75H15.2626L18.043 60.25H5V63H26.0661L26.3193 61.9412C28.1074 54.468 34.7748 49.25 42.5366 49.25C51.7361 49.25 59.2195 56.6514 59.2195 65.75C59.2195 74.8486 51.7361 82.25 42.5366 82.25C34.7748 82.25 28.1074 77.032 26.3193 69.5588L26.0661 68.5H5V71.25H18.043L15.2626 76.75H10.561V79.5H16.9813L21.1521 71.25H23.8993C26.339 79.3993 33.8516 85 42.5366 85C53.2696 85 62 76.3653 62 65.75C62 55.1347 53.2696 46.5 42.5366 46.5Z" fill="#AC6FFF"/>
<path d="M0 60H2V63H0V60Z" fill="#AC6FFF"/>
<path d="M0 68H2V70H0V68Z" fill="#AC6FFF"/>
<path d="M5 77H8V80H5V77Z" fill="#AC6FFF"/>
<path d="M5 52H8V54H5V52Z" fill="#AC6FFF"/>
<path fill-rule="evenodd" clip-rule="evenodd" d="M38.6 53V55.7778H36V75.2222H38.6V78H41.2V75.2222H42.5V78H45.1V75.0249C47.3363 74.4044 49 72.2471 49 69.6667C49 68.0099 48.3176 66.5179 47.236 65.5C48.3176 64.4821 49 62.9901 49 61.3333C49 58.7529 47.3363 56.5956 45.1 55.9751V53H42.5V55.7778H41.2V53H38.6ZM38.6 72.4444V66.8889H43.8C45.2339 66.8889 46.4 68.1347 46.4 69.6667C46.4 71.1987 45.2339 72.4444 43.8 72.4444H38.6ZM43.8 64.1111C45.2339 64.1111 46.4 62.8653 46.4 61.3333C46.4 59.8014 45.2339 58.5556 43.8 58.5556H38.6V64.1111H43.8Z" fill="#AC6FFF"/>
<path d="M82 13H85V15H82V13Z" fill="#AC6FFF"/>
<path d="M82 22H85V25H82V22Z" fill="#AC6FFF"/>
<path d="M77 30H80V32H77V30Z" fill="#AC6FFF"/>
<path d="M69.7374 8.25H74.439V5.5H68.0187L63.8479 13.75H61.1007C58.661 5.60071 51.1484 0 42.4634 0C31.7304 0 23 8.6347 23 19.25C23 29.8653 31.7304 38.5 42.4634 38.5C57.7948 38.5 70.2683 50.8367 70.2683 66H73.0488C73.0488 52.0546 63.4562 40.2899 50.456 36.8047C55.5078 34.5603 59.4579 30.2379 61.1007 24.75H63.8479L68.0187 33H74.439V30.25H69.7374L66.957 24.75H80V22H58.9339L58.6807 23.0588C56.8926 30.532 50.2238 35.75 42.4634 35.75C33.2639 35.75 25.7805 28.3486 25.7805 19.25C25.7805 10.1514 33.2639 2.75 42.4634 2.75C50.2252 2.75 56.8926 7.96802 58.6807 15.4412L58.9339 16.5H80V13.75H66.957L69.7374 8.25Z" fill="#AC6FFF"/>
<path d="M77 5H80V8H77V5Z" fill="#AC6FFF"/>
<path d="M39.6667 12.5556H45.3333C46.896 12.5556 48.1667 13.8014 48.1667 15.3333H51C51 12.2694 48.4586 9.77778 45.3333 9.77778H43.9167V7H41.0833V9.77778H39.6667C36.5414 9.77778 34 12.2694 34 15.3333C34 18.3973 36.5414 20.8889 39.6667 20.8889H45.3333C46.896 20.8889 48.1667 22.1347 48.1667 23.6667C48.1667 25.1986 46.896 26.4444 45.3333 26.4444H39.6667C38.104 26.4444 36.8333 25.1986 36.8333 23.6667H34C34 26.7306 36.5414 29.2222 39.6667 29.2222H41.0833V32H43.9167V29.2222H45.3333C48.4586 29.2222 51 26.7306 51 23.6667C51 20.6027 48.4586 18.1111 45.3333 18.1111H39.6667C38.104 18.1111 36.8333 16.8653 36.8333 15.3333C36.8333 13.8014 38.104 12.5556 39.6667 12.5556Z" fill="#AC6FFF"/>
<path d="M82 82H85V85H82V82Z" fill="#AC6FFF"/>
<path d="M77 82H80V85H77V82Z" fill="#AC6FFF"/>
<path d="M82 77H85V80H82V77Z" fill="#AC6FFF"/>
<path d="M82 72H85V75H82V72Z" fill="#AC6FFF"/>
<path d="M77 77H80V80H77V77Z" fill="#AC6FFF"/>
<path d="M72 82H75V85H72V82Z" fill="#AC6FFF"/>
<path d="M0 0H2V2H0V0Z" fill="#AC6FFF"/>
<path d="M0 5H2V8H0V5Z" fill="#AC6FFF"/>
<path d="M5 0H8V2H5V0Z" fill="#AC6FFF"/>
<path d="M11 0H14V2H11V0Z" fill="#AC6FFF"/>
<path d="M5 5H8V8H5V5Z" fill="#AC6FFF"/>
<path d="M0 11H2V14H0V11Z" fill="#AC6FFF"/>
<path d="M42.5 41.1176C30.4926 41.1176 20.7222 31.1948 20.7222 19H18C18 32.7196 28.9912 43.8824 42.5 43.8824C54.5074 43.8824 64.2778 53.8052 64.2778 66H67C67 52.2804 56.0088 41.1176 42.5 41.1176Z" fill="#AC6FFF"/>
<path d="M64 68H67V70H64V68Z" fill="#AC6FFF"/>
<path d="M70 68H72V70H70V68Z" fill="#AC6FFF"/>
<path d="M12 13H15V15H12V13Z" fill="#AC6FFF"/>
<path d="M18 13H20V15H18V13Z" fill="#AC6FFF"/>
</svg>
