<svg width="90" height="90" viewBox="0 0 90 90" fill="none" xmlns="http://www.w3.org/2000/svg">
<path d="M36 81H53V84H36V81Z" fill="#00FFB1"/>
<path fill-rule="evenodd" clip-rule="evenodd" d="M23.5 38V35H20.5V38H16V53H20.5V56H23.5V53C25.9807 53 28 50.9807 28 48.5C28 47.3479 27.5649 46.2961 26.8508 45.5C27.5649 44.7039 28 43.6521 28 42.5C28 40.0193 25.9807 38 23.5 38ZM23.5 50H19V47H23.5C24.3262 47 25 47.6724 25 48.5C25 49.3276 24.3262 50 23.5 50ZM19 44H23.5C24.3262 44 25 43.3276 25 42.5C25 41.6724 24.3262 41 23.5 41H19V44Z" fill="#00FFB1"/>
<path fill-rule="evenodd" clip-rule="evenodd" d="M70.08 75.4839H20.44V63.8334L19.1875 63.6548C9.91346 62.3322 2.92 54.3122 2.92 45C2.92 35.6878 9.91346 27.6678 19.1875 26.3452L20.44 26.1666V13.0645H70.08V18.871H73V7.25806C73 3.25621 69.725 0 65.7 0H24.82C20.795 0 17.52 3.25621 17.52 7.25806V23.6872C7.44757 25.73 0 34.6778 0 45C0 55.3222 7.44757 64.27 17.52 66.3128V82.7419C17.52 86.7438 20.795 90 24.82 90H65.7C69.725 90 73 86.7438 73 82.7419V58.0645H70.08V75.4839ZM24.82 2.90323H65.7C68.1146 2.90323 70.08 4.85738 70.08 7.25806V10.1613H20.44V7.25806C20.44 4.85738 22.4054 2.90323 24.82 2.90323ZM24.82 87.0968H65.7C68.1146 87.0968 70.08 85.1426 70.08 82.7419V78.3871H20.44V82.7419C20.44 85.1426 22.4054 87.0968 24.82 87.0968Z" fill="#00FFB1"/>
<path d="M9.59564 35C7.27653 37.8344 6 41.4131 6 45.0766C6 53.8561 13.1439 61 21.9234 61C25.5869 61 29.1656 59.7221 32 57.4029L30.1658 55.163C27.8481 57.0594 24.9197 58.1048 21.9234 58.1048C14.7406 58.1048 8.89517 52.2608 8.89517 45.0766C8.89517 42.0803 9.94057 39.1519 11.837 36.8356L9.59564 35Z" fill="#00FFB1"/>
<path d="M34.4044 55C36.7235 52.1656 38 48.5869 38 44.9234C38 36.1439 30.8561 29 22.0766 29C18.4131 29 14.8344 30.2779 12 32.5971L13.8342 34.837C16.1519 32.9406 19.0803 31.8952 22.0766 31.8952C29.2594 31.8952 35.1048 37.7392 35.1048 44.9234C35.1048 47.9197 34.0594 50.8481 32.163 53.1644L34.4044 55Z" fill="#00FFB1"/>
<path d="M44 45C44 33.4771 34.8675 23.8122 23.2113 23L23 25.9346C33.1025 26.6412 41.0151 35.0152 41.0151 45C41.0151 54.9848 33.1025 63.3588 23 64.0654L23.2113 67C34.8675 66.1878 44 56.5229 44 45Z" fill="#00FFB1"/>
<path fill-rule="evenodd" clip-rule="evenodd" d="M52 58.25V67H49V58.25H46V40.75H49V32H52V40.75H55V58.25H52ZM52.5455 43.6667H49.2727V55.3333H52.5455V43.6667Z" fill="#00FFB1"/>
<path fill-rule="evenodd" clip-rule="evenodd" d="M64 39.125V61H61V39.125H58V30.375H61V26H64V30.375H67V39.125H64ZM64 33.2917H61V36.2083H64V33.2917Z" fill="#00FFB1"/>
<path fill-rule="evenodd" clip-rule="evenodd" d="M72 21H75V41.087H78V49.6957H75V54H72V49.6957H69V41.087H72V21ZM72 46.8261H75V43.9565H72V46.8261Z" fill="#00FFB1"/>
<path fill-rule="evenodd" clip-rule="evenodd" d="M87 19.375H90V36.875H87V50H84V36.875H81V19.375H84V15H87V19.375ZM84 33.9583H87V22.2917H84V33.9583Z" fill="#00FFB1"/>
</svg>
