<svg width="92" height="92" viewBox="0 0 92 92" fill="none" xmlns="http://www.w3.org/2000/svg">
<path fill-rule="evenodd" clip-rule="evenodd" d="M44.6667 53V55.8889H40V76.1111H44.6667V79H47.7778V76.1111C51.2094 76.1111 54 73.5199 54 70.3333C54 68.6103 53.1835 67.0586 51.8892 66C53.1835 64.9414 54 63.3897 54 61.6667C54 58.4801 51.2094 55.8889 47.7778 55.8889V53H44.6667ZM47.7778 73.2222H43.1111V67.4444H47.7778C49.4936 67.4444 50.8889 68.7401 50.8889 70.3333C50.8889 71.9266 49.4936 73.2222 47.7778 73.2222ZM47.7778 64.5556C49.4936 64.5556 50.8889 63.2599 50.8889 61.6667C50.8889 60.0734 49.4936 58.7778 47.7778 58.7778H43.1111V64.5556H47.7778Z" fill="#FBD462"/>
<path fill-rule="evenodd" clip-rule="evenodd" d="M92 38.3607C92 25.3449 81.3484 14.7541 68.2581 14.7541C65.1092 14.7541 62.1074 15.3794 59.3548 16.4925V11.8033H56.3871V17.9484C55.3466 18.5485 54.3526 19.2171 53.4194 19.962V8.85246H50.4516V22.7997C49.322 24.0755 48.3178 25.4609 47.4839 26.9586V0H44.5161V26.9572C43.6822 25.4595 42.678 24.0741 41.5484 22.7983V8.85246H38.5806V19.962C37.6474 19.2171 36.6534 18.5485 35.6129 17.9484V11.8033H32.6452V16.4925C29.8926 15.3794 26.8908 14.7541 23.7419 14.7541C10.6516 14.7541 0 25.3449 0 38.3607C0 43.4742 1.66211 48.2001 4.45161 52.0702V72.2951H7.41935V55.459C8.34533 56.3328 9.32926 57.1455 10.3871 57.8644V78.1967H13.3548V59.5553C14.312 60.0214 15.2988 60.4342 16.3226 60.7706V85.5738H19.2903V61.5364C20.4003 61.7475 21.5415 61.8642 22.6986 61.9139C22.4167 63.3663 22.2581 64.8604 22.2581 66.3934C22.2581 79.4092 32.9096 90 46 90C59.0904 90 69.7419 79.4092 69.7419 66.3934C69.7419 64.8604 69.5833 63.3663 69.3014 61.9139C70.46 61.8642 71.5997 61.746 72.7097 61.5364V85.5738H75.6774V60.7706C76.7012 60.4342 77.688 60.0214 78.6452 59.5567V78.1967H81.6129V57.8623C82.6707 57.144 83.6547 56.3328 84.5806 55.4575V72.2951H87.5484V52.0702C90.3379 48.2001 92 43.4742 92 38.3607ZM23.7419 17.7049C34.187 17.7049 42.8323 25.417 44.2785 35.4098H31.7279L29.781 39.2828L25.178 28.6055L19.6171 42.4296L15.306 25.2808L9.46982 36.8852H3.04309C3.80894 26.1842 12.7882 17.7049 23.7419 17.7049ZM11.3058 39.8361H3.04309C3.80314 50.4456 12.6383 58.8601 23.4673 59.0034C26.3952 50.2007 34.3899 43.6881 44.0053 42.887C44.3379 41.4073 44.5161 39.8894 44.5161 38.3607H33.5624L29.5753 46.291L25.2751 36.3125L18.965 51.9967L14.3728 33.7356L11.3058 39.8361ZM46 87.0492C34.5442 87.0492 25.2258 77.7839 25.2258 66.3934C25.2258 55.003 34.5442 45.7377 46 45.7377C57.4558 45.7377 66.7742 55.003 66.7742 66.3934C66.7742 77.7839 57.4558 87.0492 46 87.0492ZM47.9947 42.8885C57.6101 43.6881 65.6048 50.2021 68.5327 59.0034C79.8602 58.8543 89.0323 49.6582 89.0323 38.3607C89.0323 26.9702 79.7139 17.7049 68.2581 17.7049C56.8023 17.7049 47.4839 26.9702 47.4839 38.3607C47.4839 39.8923 47.6621 41.4087 47.9947 42.8885Z" fill="#FBD462"/>
<path d="M45.3155 49C41.1894 49 37.1719 50.4543 34 53.0966L35.8882 55.3604C38.5305 53.1606 41.8773 51.9474 45.3155 51.9474C53.4418 51.9474 60.0526 58.5582 60.0526 66.6845C60.0526 70.1227 58.8394 73.4709 56.6396 76.1118L58.902 78C61.5457 74.8295 63 70.8121 63 66.6845C63 56.9327 55.0673 49 45.3155 49Z" fill="#FBD462"/>
<path d="M45.6845 81.0526C37.5582 81.0526 30.9474 74.4418 30.9474 66.3155C30.9474 62.8773 32.1606 59.5291 34.3604 56.8882L32.098 55C29.4543 58.1705 28 62.1879 28 66.3155C28 76.0673 35.9327 84 45.6845 84C49.8106 84 53.8281 82.5457 57 79.9034L55.1118 77.6396C52.4695 79.8394 49.1227 81.0526 45.6845 81.0526Z" fill="#FBD462"/>
<path fill-rule="evenodd" clip-rule="evenodd" d="M58 39L69 55L80 39L69 23L58 39ZM67.4727 39.9061L62.2173 38.2074L67.4727 30.5628V39.9061ZM67.4727 47.4372V43.0302L63.5768 41.7697L67.4727 47.4372ZM70.5273 43.0302L74.4232 41.7712L70.5273 47.4372V43.0302ZM70.5273 30.5607V39.9061L75.7827 38.206L70.5273 30.5607Z" fill="#FBD462"/>
<path d="M5 76H9V80H5V76Z" fill="#FBD462"/>
<path d="M11 81H15V85H11V81Z" fill="#FBD462"/>
<path d="M16 88H20V92H16V88Z" fill="#FBD462"/>
<path d="M85 76H89V80H85V76Z" fill="#FBD462"/>
<path d="M78 81H82V85H78V81Z" fill="#FBD462"/>
<path d="M73 88H77V92H73V88Z" fill="#FBD462"/>
<path d="M39 4H43V8H39V4Z" fill="#FBD462"/>
<path d="M51 4H55V8H51V4Z" fill="#FBD462"/>
</svg>
