<svg width="449" height="265" viewBox="0 0 449 265" fill="none" xmlns="http://www.w3.org/2000/svg">
<path fill-rule="evenodd" clip-rule="evenodd" d="M0.202197 261.808C8.16401 256.707 60.5606 178.888 60.5606 176.421C60.5606 173.953 74.3039 188.484 78.7441 185.856C83.1844 183.228 124.292 117.437 127.048 117.437C129.804 117.437 134.724 127.385 137.021 125.375C139.318 123.366 155.637 97.3162 153.569 92.0279C151.5 86.7397 170.577 54.9101 175.324 52.1276C180.07 49.3451 187.993 65.0895 191.641 65.0895C195.29 65.0895 203.792 73.6692 203.792 73.6692C203.792 73.6692 228.948 57.7824 231.629 43.281C234.31 28.7795 246.821 4.34639 249.342 0.206481C251.862 -3.93343 276.545 55.5255 279.301 57.8384C282.057 60.1512 326.472 124.754 336.075 130.904C345.678 137.055 353.023 125.375 353.023 125.375L363.647 142.865H376.373L405.248 199.222C405.248 199.222 443.156 261.808 447.876 261.808C452.596 261.808 -7.75962 266.91 0.202197 261.808Z" fill="#D8D8D8"/>
<path fill-rule="evenodd" clip-rule="evenodd" d="M128.547 126.694C128.547 129.881 117.1 144.248 117.1 148.403C117.1 152.558 127.761 192.93 134.437 192.93C141.114 192.93 151.699 195.399 151.699 195.399C151.699 195.399 152.648 246.443 157.649 249.322C162.651 252.202 191.237 246.443 202.562 249.322C213.887 252.202 218.987 254.365 218.987 254.365C218.987 254.365 200.316 222.649 194.814 219.435C189.313 216.222 176.512 199.864 176.512 195.399C176.512 190.933 184.436 171.809 164.605 160.106C144.938 153.836 139.343 141.743 136.89 134.622C132.463 132.197 128.547 123.507 128.547 126.694Z" fill="white"/>
<path fill-rule="evenodd" clip-rule="evenodd" d="M179.2 60.3001C186.652 75.2589 182.687 121.183 182.687 121.183L198.887 138.57L209.719 184.558L215.164 182.691C215.164 182.691 288.184 225.08 304.169 246.353C320.154 267.627 259.804 153.327 259.804 153.327C259.804 153.327 275.467 151.678 272.395 148.707C269.323 145.737 247.704 136.018 247.704 136.018L243.358 116.225L226.408 95.6231L213.003 79.9211L202.529 84.5309C202.529 84.5309 185.187 62.2122 179.2 60.3001Z" fill="white"/>
<path fill-rule="evenodd" clip-rule="evenodd" d="M250.596 19.3042C247.995 23.2451 240.4 38.8013 240.4 41.0749C240.4 43.3484 243.407 59.887 243.407 59.887C243.407 59.887 247.055 56.1867 250.596 59.887C254.138 63.5873 259.785 88.6721 259.785 88.6721C259.785 88.6721 275.458 108.936 277.883 111.361C280.308 113.786 309.29 135.759 309.29 137.881C309.29 140.003 308.5 126.605 312.138 126.605C315.775 126.605 318.807 123.545 318.807 123.545C318.807 123.545 281.239 78.6991 271.466 59.887C261.693 41.0749 253.198 15.3634 250.596 19.3042Z" fill="white"/>
<path fill-rule="evenodd" clip-rule="evenodd" d="M352.9 136.8V162.759L356.555 231.748L364.246 252.79L430.333 250.702L402.272 210.56C402.272 210.56 379.119 171.342 379.119 164.961C379.119 158.581 373.559 148.313 373.559 148.313H361.13L352.9 136.8Z" fill="white"/>
</svg>
