<svg id = "shape" width="60" height="56" viewBox="0 0 60 56" fill="none" xmlns="http://www.w3.org/2000/svg">
<path d="M10 23H23C23.553 23 24 22.552 24 22C24 21.448 23.553 21 23 21H10C9.447 21 9 21.448 9 22C9 22.552 9.447 23 10 23Z" fill="#CCCCCC"/>
<path d="M36 27H10C9.447 27 9 27.448 9 28C9 28.552 9.447 29 10 29H36C36.553 29 37 28.552 37 28C37 27.448 36.553 27 36 27Z" fill="#CCCCCC"/>
<path d="M36 33H10C9.447 33 9 33.448 9 34C9 34.552 9.447 35 10 35H36C36.553 35 37 34.552 37 34C37 33.448 36.553 33 36 33Z" fill="#CCCCCC"/>
<path fill-rule="evenodd" clip-rule="evenodd" d="M54.072 0.07L19.93 0C16.66 0 14 2.66 14 5.93V11.054L5.93 11.071C2.66 11.071 0 13.731 0 17.001V38.142C0 41.412 2.66 44.071 5.93 44.071H12V54.071C12 54.484 12.254 54.855 12.64 55.004C12.757 55.049 12.879 55.071 13 55.071C13.276 55.071 13.547 54.956 13.74 54.744L23.444 44.069L40.07 44.001C43.34 44.001 46 41.341 46 38.072V37.959L51.26 43.745C51.453 43.957 51.724 44.072 52 44.072C52.121 44.072 52.243 44.05 52.36 44.005C52.746 43.856 53 43.485 53 43.072V33.072H54.07C57.34 33.072 60 30.412 60 27.143V6C60 2.731 57.341 0.071 54.072 0.07ZM44 38.071C44 40.238 42.237 42 40.066 42L22.996 42.07C22.716 42.071 22.448 42.19 22.26 42.397L14 51.484V43.07C14 42.518 13.553 42.07 13 42.07H5.93C3.763 42.07 2 40.307 2 38.141V17C2 14.833 3.763 13.07 5.932 13.07L15 13.051H15.002L40.07 12.999C42.237 12.999 44 14.762 44 16.929V35.37V38.071ZM54.07 31.07C56.237 31.07 58 29.308 58 27.141H58.001V5.999C58.001 3.832 56.238 2.069 54.071 2.069H54.069L19.928 1.999C17.763 1.999 16 3.762 16 5.929V11.049L40.068 11C43.34 11 46 13.66 46 16.93V34.984L51 40.484V32.07C51 31.518 51.447 31.07 52 31.07H54.07Z" fill="#CCCCCC"/>
</svg>
