<svg width="27" height="27" viewBox="0 0 27 27" fill="none" xmlns="http://www.w3.org/2000/svg">
<path fill-rule="evenodd" clip-rule="evenodd" d="M26.3037 4.66256C26.6361 5.51719 26.8681 6.50348 26.9314 7.9381C26.9946 9.37807 27 9.83691 27 13.5027C27 17.1684 26.9841 17.6273 26.9209 19.0673C26.8576 20.5019 26.6254 21.483 26.2932 22.3428C25.5915 24.1571 24.1566 25.5918 22.3417 26.2933C21.4871 26.6256 20.5006 26.8576 19.0657 26.9209C17.6255 26.9843 17.1666 27 13.5001 27C9.83364 27 9.37451 26.9843 7.93446 26.9209C6.49936 26.8576 5.51825 26.6256 4.6583 26.2933C3.76147 25.9558 2.94376 25.423 2.26846 24.7373C1.58265 24.0622 1.04995 23.25 0.707039 22.3428C0.374642 21.4882 0.142397 20.5019 0.0791324 19.0673C0.0158677 17.6273 0 17.1684 0 13.5027C0 9.83691 0.0158677 9.37807 0.0844902 7.93274C0.147755 6.49812 0.379794 5.51719 0.712191 4.65741C1.04995 3.76075 1.58265 2.9432 2.26846 2.26803C2.94376 1.57699 3.75611 1.04954 4.66366 0.706698C5.51824 0.374571 6.50472 0.14237 7.93961 0.0791173C9.37986 0.0158646 9.83879 0 13.5053 0C17.1717 0 17.6306 0.0158646 19.0763 0.0844741C20.5111 0.147727 21.4925 0.379722 22.3522 0.712055C23.249 1.04954 24.0667 1.58235 24.742 2.26803C25.4332 2.9432 25.9608 3.75539 26.3037 4.66256ZM24.0352 21.4671C24.2199 20.9924 24.4414 20.2804 24.4995 18.9618C24.5628 17.5377 24.5786 17.1157 24.5786 13.5132C24.5786 9.91067 24.5628 9.48356 24.4995 8.05945C24.4414 6.74598 24.2199 6.02878 24.0352 5.55407C23.8188 4.96852 23.4759 4.44107 23.0275 4.00325C22.595 3.55492 22.0621 3.21208 21.4766 2.99595C21.0018 2.81134 20.2896 2.58985 18.9707 2.53175C17.5515 2.4685 17.1243 2.45264 13.5158 2.45264C9.91277 2.45264 9.48537 2.4685 8.06099 2.53175C6.74748 2.58985 6.02993 2.81134 5.55513 2.99595C4.96947 3.21208 4.44192 3.55492 4.00422 4.00325C3.55045 4.43592 3.20754 4.96852 2.99116 5.55407C2.80652 6.02878 2.58499 6.74083 2.52708 8.05945C2.46361 9.47821 2.44795 9.91067 2.44795 13.5132C2.44795 17.1157 2.46361 17.543 2.52708 18.9671C2.58499 20.2804 2.80652 20.9978 2.99116 21.4725C3.20754 22.0578 3.55045 22.5853 3.99886 23.0231C4.43141 23.4715 4.96432 23.8143 5.54977 24.0306C6.02457 24.2152 6.73676 24.4367 8.05563 24.4946C9.47486 24.5581 9.90741 24.5737 13.5106 24.5737C17.1138 24.5737 17.541 24.5581 18.9654 24.4946C20.2791 24.4367 20.9965 24.2152 21.4712 24.0306C22.6477 23.5769 23.5814 22.6434 24.0352 21.4671Z" fill="#fff"/>
<path fill-rule="evenodd" clip-rule="evenodd" d="M6 13C6 9.13528 9.13549 6 13 6C16.8647 6 20 9.13528 20 13C20 16.8647 16.8647 20 13 20C9.13549 20 6 16.8647 6 13ZM8.45927 13C8.45927 15.5073 10.4929 17.5407 13 17.5407C15.5073 17.5407 17.5407 15.5073 17.5407 13C17.5407 10.4927 15.5073 8.45927 13 8.45927C10.4929 8.45927 8.45927 10.4927 8.45927 13Z" fill="#fff"/>
<path d="M22 6.5C22 7.32835 21.3284 8 20.4999 8C19.6716 8 19 7.32835 19 6.5C19 5.67146 19.6716 5 20.4999 5C21.3284 5 22 5.67146 22 6.5Z" fill="#fff"/>
</svg>
