<svg width="54" height="56" viewBox="0 0 54 56" fill="none" xmlns="http://www.w3.org/2000/svg">
<path id="shape" fill-rule="evenodd" clip-rule="evenodd" d="M51.9104 0.134719L23.6442 13.4671C22.9083 13.8141 22.5895 14.7002 22.9321 15.4459C23.2748 16.1915 24.1491 16.5149 24.8847 16.1675L42.3212 7.94308L33.8442 14.8964L14.3908 30.8527L3.75061 26.1358L18.6607 19.1032C19.3966 18.7558 19.7155 17.8701 19.3728 17.1244C19.0303 16.3788 18.1556 16.0553 17.4203 16.4027L1.37089 23.9729C0.51764 24.3753 -0.0210055 25.2556 0.000628282 26.2086C0.0217121 27.1411 0.577958 27.9804 1.42113 28.3542L13.3018 33.6205L16.7813 54.7739C16.9955 56.0819 18.7434 56.4543 19.4604 55.3451L29.3306 40.0808L47.9964 48.9068C49.4919 49.6145 51.2715 48.533 51.368 46.8697L53.9977 1.5716C54.0005 1.52961 54.0003 1.48652 53.9994 1.44435C53.9701 0.390144 52.8524 -0.306653 51.9104 0.134719ZM18.2576 47L16 33.1022L39 14L21.3967 34.249C21.2383 34.4313 21.1208 34.6606 21.0662 34.8987L18.2576 47ZM24.1353 37L22 46L27 38.3416L24.1353 37ZM28.0491 36L25 34.518L40 17L37.8304 20.4495L28.0491 36ZM31 37.6878L48.718 46L51 7L31 37.6878Z" fill="#CCCCCC"/>
</svg>
