<svg width="113" height="77" viewBox="0 0 113 77" fill="none" xmlns="http://www.w3.org/2000/svg">
<rect width="113" height="77" rx="4" fill="#FBD462"/>
<path fill-rule="evenodd" clip-rule="evenodd" d="M49 21.4812L53.1695 20.5225L53.7566 24L55 18L49 21.4812Z" fill="#404040"/>
<path fill-rule="evenodd" clip-rule="evenodd" d="M36.0123 46.7253C36.9724 46.1071 43.2907 36.6772 43.2907 36.3782C43.2907 36.0792 44.948 37.84 45.4834 37.5216C46.0188 37.2031 50.9758 29.2307 51.3082 29.2307C51.6405 29.2307 52.2338 30.4362 52.5108 30.1927C52.7877 29.9492 54.7556 26.7925 54.5062 26.1517C54.2568 25.5109 56.5572 21.6539 57.1296 21.3167C57.7019 20.9795 58.6573 22.8874 59.0973 22.8874C59.5372 22.8874 60.5625 23.927 60.5625 23.927C60.5625 23.927 63.596 22.0019 63.9192 20.2447C64.2425 18.4874 65.7512 15.5267 66.0551 15.025C66.359 14.5234 69.3355 21.7284 69.6679 22.0087C70.0002 22.289 75.3559 30.1173 76.514 30.8626C77.672 31.6079 78.5577 30.1927 78.5577 30.1927L79.8388 32.3121H81.3733L84.8553 39.1413C84.8553 39.1413 89.4265 46.7253 89.9957 46.7253C90.5648 46.7253 35.0522 47.3434 36.0123 46.7253Z" fill="#404040"/>
<path fill-rule="evenodd" clip-rule="evenodd" d="M51.3481 32.0811C51.3481 32.4535 50 34.1324 50 34.6179C50 35.1035 51.2556 39.821 52.0419 39.821C52.8283 39.821 54.075 40.1095 54.075 40.1095C54.075 40.1095 53.4859 43.548 54.075 43.8845C54.6641 44.221 56.6064 43.548 57.9403 43.8845C59.2742 44.221 62 47 62 47C62 47 59.801 43.2939 59.153 42.9183C58.505 42.5428 56.9975 40.6313 56.9975 40.1095C56.9975 39.5877 57.9307 37.353 55.5951 35.9855C53.2787 35.2528 52.6197 33.8396 52.3308 33.0075C51.8094 32.7241 51.3481 31.7086 51.3481 32.0811Z" fill="#FBD462"/>
<path fill-rule="evenodd" clip-rule="evenodd" d="M58 24C58.8711 25.8166 58.4076 31.3937 58.4076 31.3937L60.3014 33.5052L61.5677 39.0901L62.2042 38.8634C62.2042 38.8634 70.7401 44.0111 72.6087 46.5946C74.4773 49.1781 67.4225 35.2973 67.4225 35.2973C67.4225 35.2973 69.2535 35.097 68.8943 34.7363C68.5352 34.3756 66.008 33.1953 66.008 33.1953L65.5 30.7916L63.5186 28.2897L61.9515 26.3828L60.7271 26.9426C60.7271 26.9426 58.6999 24.2322 58 24Z" fill="#FBD462"/>
<path fill-rule="evenodd" clip-rule="evenodd" d="M66.0403 18.0475C65.7749 18.5103 65 20.3372 65 20.6042C65 20.8712 65.3068 22.8135 65.3068 22.8135C65.3068 22.8135 65.679 22.379 66.0403 22.8135C66.4017 23.2481 66.9779 26.1941 66.9779 26.1941C66.9779 26.1941 68.577 28.5739 68.8245 28.8587C69.0719 29.1435 72.029 31.724 72.029 31.9732C72.029 32.2224 71.9484 30.649 72.3195 30.649C72.6907 30.649 73 30.2896 73 30.2896C73 30.2896 69.1669 25.0229 68.1697 22.8135C67.1725 20.6042 66.3057 17.5847 66.0403 18.0475Z" fill="#FBD462"/>
<path fill-rule="evenodd" clip-rule="evenodd" d="M19.0012 47.914C21.9093 48.5027 32.1025 46.2599 42.0269 35.2465C46.5453 30.2323 54 19.5664 54 19.5664L53.4088 19C53.4088 19 43.3281 31.8863 40.6626 34.5163C37.9971 37.1463 29.0002 47.1174 19.1482 47.436C9.29621 47.7547 16.0932 47.3253 19.0012 47.914Z" fill="#404040"/>
<path fill-rule="evenodd" clip-rule="evenodd" d="M79 33V35.507L79.3776 42.1696H83L87 44L84.1009 40.1234C84.1009 40.1234 81.7088 36.3359 81.7088 35.7197C81.7088 35.1035 81.1343 34.1119 81.1343 34.1119H79.8503L79 33Z" fill="#FBD462"/>
<path fill-rule="evenodd" clip-rule="evenodd" d="M14 61.8056V51H22.6257V53.7216H17.4435V54.9853H22.5064V57.7069H17.4435V59.0839H22.6257V61.8056H14ZM27.9202 61.8056V51H31.3637V58.9543H35.6765V61.8056H27.9202ZM40.8177 61.8056V51H47.7216C48.8126 51 49.6479 51.2808 50.2275 51.8424C50.8071 52.404 51.0969 53.0412 51.0969 53.7541C51.0969 54.4129 50.9151 54.961 50.5514 55.3984C50.1877 55.8358 49.7218 56.1139 49.1536 56.2327C49.7786 56.3191 50.2957 56.608 50.7048 57.0994C51.114 57.5908 51.3185 58.1821 51.3185 58.8733C51.3185 59.6834 51.0287 60.3746 50.4491 60.947C49.8695 61.5194 49.0399 61.8056 47.9603 61.8056H40.8177ZM44.2611 55.0177H46.9204C47.1023 55.0177 47.2614 54.9502 47.3977 54.8152C47.5341 54.6802 47.6023 54.5155 47.6023 54.3211C47.6023 54.1375 47.5341 53.9809 47.3977 53.8513C47.2614 53.7216 47.1023 53.6568 46.9204 53.6568H44.2611V55.0177ZM44.2611 59.1487H47.0227C47.2614 59.1487 47.4546 59.0785 47.6023 58.9381C47.75 58.7977 47.8239 58.6249 47.8239 58.4197C47.8239 58.2145 47.75 58.039 47.6023 57.8932C47.4546 57.7474 47.2614 57.6745 47.0227 57.6745H44.2611V59.1487ZM56.4596 57.3667V51H59.9542V57.2533C59.9542 57.8149 60.1162 58.2658 60.4401 58.606C60.764 58.9462 61.2612 59.1163 61.9317 59.1163C62.5908 59.1163 63.0823 58.9435 63.4062 58.5979C63.7301 58.2523 63.8921 57.8041 63.8921 57.2533V51H67.3867V57.3505C67.3867 58.7653 66.9378 59.894 66.04 60.7364C65.1422 61.5788 63.7727 62 61.9317 62C60.0906 62 58.7183 61.5815 57.8149 60.7445C56.9114 59.9075 56.4596 58.7815 56.4596 57.3667ZM79.2442 61.8056L77.6759 58.3387H76.4315V61.8056H72.988V51H79.0567C80.3409 51 81.3438 51.3537 82.0655 52.0611C82.7871 52.7685 83.1479 53.6514 83.1479 54.7099C83.1479 55.5523 82.9462 56.2435 82.5428 56.7835C82.1393 57.3235 81.6592 57.7231 81.1023 57.9823L83.165 61.8056H79.2442ZM79.6534 54.6613C79.6534 54.3805 79.5425 54.1537 79.3209 53.9809C79.0993 53.8081 78.8351 53.7216 78.5283 53.7216H76.4315V55.6171H78.5283C78.8351 55.6171 79.0993 55.5307 79.3209 55.3579C79.5425 55.1851 79.6534 54.9529 79.6534 54.6613ZM87.9993 61.8056V59.2135L92.3292 53.8513H87.9993V51H96.8807V53.5758L92.5337 58.9543H97V61.8056H87.9993Z" fill="#404040"/>
</svg>
