<svg width="39" height="71" viewBox="0 0 39 71" fill="none" xmlns="http://www.w3.org/2000/svg">
<path fill-rule="evenodd" clip-rule="evenodd" d="M33.2647 0H5.73529C2.56925 0.00354992 0.0035558 2.565 0 5.72581V65.2742C0.0035558 68.435 2.56925 70.9965 5.73529 71H33.2647C36.4307 70.9965 38.9964 68.435 39 65.2742V5.72581C38.9964 2.565 36.4307 0.00354992 33.2647 0ZM27.2773 2.29032L26.5891 5.72581H12.411L11.7228 2.29032H27.2773ZM33.2647 68.7097C35.1643 68.7076 36.7038 67.1707 36.7059 65.2742V5.72581C36.7038 3.82932 35.1643 2.29245 33.2647 2.29032H29.6169L28.6542 7.09556C28.547 7.63085 28.0762 8.01615 27.5294 8.01613H11.4706C10.9238 8.01615 10.453 7.63085 10.3458 7.09556L9.38308 2.29032H5.73529C3.83567 2.29245 2.29625 3.82932 2.29412 5.72581V65.2742C2.29625 67.1707 3.83567 68.7076 5.73529 68.7097H33.2647Z" fill="#CCCCCC"/>
<path d="M12.875 64H6.125C5.50368 64 5 64.4477 5 65C5 65.5523 5.50368 66 6.125 66H12.875C13.4963 66 14 65.5523 14 65C14 64.4477 13.4963 64 12.875 64Z" fill="#CCCCCC"/>
<path d="M17 64H16C15.4477 64 15 64.4477 15 65C15 65.5523 15.4477 66 16 66H17C17.5523 66 18 65.5523 18 65C18 64.4477 17.5523 64 17 64Z" fill="#CCCCCC"/>
</svg>
