<svg width="38" height="38" viewBox="0 0 38 38" fill="none" xmlns="http://www.w3.org/2000/svg">
<path d="M23.078 6.90912L2.51649 27.4717C2.41304 27.5754 2.33835 27.7064 2.30278 27.8472L0.0237386 36.9946C-0.0444341 37.27 0.0364839 37.5628 0.237445 37.7638C0.3895 37.9159 0.596685 38 0.808613 38C0.873526 38 0.93992 37.992 1.00454 37.9757L10.1521 35.6964C10.2947 35.6609 10.4242 35.5865 10.5277 35.483L31.0909 14.9219L23.078 6.90912Z" fill="#444444"/>
<path d="M36.8061 3.47228L34.5002 1.159C32.9591 -0.387082 30.273 -0.385584 28.7337 1.159L25.9091 3.99263L33.9815 12.0909L36.8061 9.25728C37.5759 8.48528 38 7.45776 38 6.36493C38 5.2721 37.5759 4.24457 36.8061 3.47228Z" fill="#444444"/>
</svg>
